<svg width="50" height="50" viewBox="0 0 50 50" fill="none" xmlns="http://www.w3.org/2000/svg">
<circle cx="25" cy="25" r="25" fill="#D9D9D9"/>
<path fill-rule="evenodd" clip-rule="evenodd" d="M14.0632 22.084C14.2565 22.084 14.442 22.1608 14.5787 22.2976C14.7155 22.4343 14.7923 22.6198 14.7923 22.8132V35.209H35.209V22.8132C35.209 22.6198 35.2858 22.4343 35.4226 22.2976C35.5593 22.1608 35.7448 22.084 35.9382 22.084C36.1315 22.084 36.317 22.1608 36.4537 22.2976C36.5905 22.4343 36.6673 22.6198 36.6673 22.8132V35.9382C36.6673 36.1315 36.5905 36.317 36.4537 36.4537C36.317 36.5905 36.1315 36.6673 35.9382 36.6673H14.0632C13.8698 36.6673 13.6843 36.5905 13.5476 36.4537C13.4108 36.317 13.334 36.1315 13.334 35.9382V22.8132C13.334 22.6198 13.4108 22.4343 13.5476 22.2976C13.6843 22.1608 13.8698 22.084 14.0632 22.084Z" fill="black"/>
<path fill-rule="evenodd" clip-rule="evenodd" d="M14.792 18.4382C14.792 18.2448 14.8688 18.0593 15.0056 17.9226C15.1423 17.7858 15.3278 17.709 15.5212 17.709H34.4795C34.6729 17.709 34.8583 17.7858 34.9951 17.9226C35.1318 18.0593 35.2087 18.2448 35.2087 18.4382V25.2486C35.2086 25.3686 35.1789 25.4869 35.1221 25.5927C35.0654 25.6985 34.9834 25.7887 34.8834 25.8552L25.4043 32.1698C25.2846 32.2495 25.1441 32.2919 25.0003 32.2919C24.8566 32.2919 24.716 32.2495 24.5964 32.1698L15.1172 25.8552C15.0172 25.7887 14.9352 25.6985 14.8785 25.5927C14.8218 25.4869 14.7921 25.3686 14.792 25.2486V18.4382ZM16.2503 19.1673V24.8577L25.0003 30.6867L33.7503 24.8577V19.1673H16.2503Z" fill="black"/>
<path fill-rule="evenodd" clip-rule="evenodd" d="M24.5967 13.4561C24.7163 13.3765 24.8569 13.334 25.0006 13.334C25.1444 13.334 25.2849 13.3765 25.4046 13.4561L31.9671 17.8311L31.1592 19.0444L25.0006 14.9392L18.8421 19.0444L18.0342 17.8311L24.5967 13.4561ZM34.996 20.8382L36.4544 22.2965L35.4219 23.329L33.9635 21.8707L34.996 20.8382ZM16.0377 21.8707L14.5794 23.329L13.5469 22.2965L15.0052 20.8382L16.0377 21.8707ZM20.261 22.0836C20.261 21.9869 20.2995 21.8942 20.3678 21.8258C20.4362 21.7574 20.5289 21.719 20.6256 21.719H29.3756C29.4723 21.719 29.5651 21.7574 29.6334 21.8258C29.7018 21.8942 29.7402 21.9869 29.7402 22.0836C29.7402 22.1803 29.7018 22.273 29.6334 22.3414C29.5651 22.4098 29.4723 22.4482 29.3756 22.4482H20.6256C20.5289 22.4482 20.4362 22.4098 20.3678 22.3414C20.2995 22.273 20.261 22.1803 20.261 22.0836ZM20.9902 25.0003C20.9902 24.9036 21.0286 24.8108 21.097 24.7425C21.1654 24.6741 21.2581 24.6357 21.3548 24.6357H28.6465C28.7432 24.6357 28.8359 24.6741 28.9043 24.7425C28.9726 24.8108 29.011 24.9036 29.011 25.0003C29.011 25.097 28.9726 25.1897 28.9043 25.2581C28.8359 25.3264 28.7432 25.3649 28.6465 25.3649H21.3548C21.2581 25.3649 21.1654 25.3264 21.097 25.2581C21.0286 25.1897 20.9902 25.097 20.9902 25.0003Z" fill="black"/>
</svg>
