<svg width="50" height="50" viewBox="0 0 50 50" fill="none" xmlns="http://www.w3.org/2000/svg">
<circle cx="25" cy="25" r="25" fill="#F8D729"/>
<path d="M27.9657 17.4399L15.5188 29.8843C15.1488 30.2543 14.9079 30.7338 14.8322 31.2515L14.1602 35.838L18.7478 35.1659C19.2657 35.0899 19.7452 34.8486 20.115 34.4781L32.5595 22.0336M27.9657 17.4399L30.6746 14.7298C30.8551 14.5492 31.0695 14.406 31.3054 14.3082C31.5414 14.2105 31.7943 14.1602 32.0497 14.1602C32.305 14.1602 32.5579 14.2105 32.7939 14.3082C33.0298 14.406 33.2442 14.5492 33.4247 14.7298L35.2695 16.5746C35.4501 16.7552 35.5934 16.9696 35.6911 17.2055C35.7889 17.4414 35.8392 17.6943 35.8392 17.9497C35.8392 18.2051 35.7889 18.458 35.6911 18.6939C35.5934 18.9299 35.4501 19.1442 35.2695 19.3248L32.5595 22.0336M27.9657 17.4399L32.5595 22.0336" stroke="black" stroke-width="2" stroke-linecap="round" stroke-linejoin="round"/>
</svg>
