<svg width="50" height="50" viewBox="0 0 50 50" fill="none" xmlns="http://www.w3.org/2000/svg">
<circle cx="25" cy="25" r="25" fill="#D9D9D9"/>
<path fill-rule="evenodd" clip-rule="evenodd" d="M24.1402 14.4366C23.6614 15.0612 23.1218 16.0262 22.3368 17.4335L21.9394 18.1468L21.8677 18.2757C21.5031 18.9319 21.1932 19.4885 20.6961 19.8652C20.1942 20.2468 19.5817 20.3842 18.8696 20.5446L18.731 20.5762L17.9581 20.7512C16.433 21.0963 15.3939 21.3333 14.6842 21.614C13.9902 21.8862 13.8444 22.1111 13.7885 22.2897C13.729 22.4793 13.7277 22.7697 14.1409 23.4284C14.5626 24.0968 15.2736 24.9305 16.3114 26.1458L16.8389 26.7619L16.93 26.8677C17.4198 27.4388 17.8281 27.9152 18.0152 28.518C18.2012 29.1171 18.1392 29.7454 18.0639 30.5086L18.0517 30.6508L17.9715 31.4736C17.8135 33.0923 17.709 34.2079 17.7442 35.01C17.7807 35.8121 17.9496 36.0333 18.0845 36.1354C18.2036 36.2265 18.4248 36.3262 19.1455 36.1196C19.8783 35.9105 20.8529 35.4645 22.2809 34.8071L23.0052 34.4741L23.1376 34.4133C23.8 34.1059 24.3736 33.8409 25.0007 33.8409C25.6277 33.8409 26.2014 34.1059 26.8637 34.4121C26.9066 34.4332 26.9512 34.4534 26.9974 34.4729L27.7205 34.8071C29.1484 35.4645 30.1231 35.9105 30.8559 36.1196C31.5765 36.3262 31.7977 36.2265 31.9168 36.1354C32.0517 36.0333 32.2206 35.8109 32.2571 35.01C32.2935 34.2079 32.1866 33.0923 32.0298 31.4736L31.9496 30.6508L31.9375 30.5086C31.8621 29.7454 31.8001 29.1171 31.9861 28.518C32.1732 27.9152 32.5816 27.4388 33.0713 26.8677L33.1625 26.7619L33.6899 26.1458C34.7277 24.9305 35.4387 24.0968 35.8592 23.4284C36.2736 22.7697 36.2724 22.4805 36.2128 22.2897C36.1569 22.1111 36.0111 21.8862 35.3172 21.614C34.6062 21.3333 33.5684 21.0963 32.0432 20.7512L31.2703 20.5762L31.1317 20.5446C30.4196 20.3842 29.8071 20.2468 29.3052 19.8652C28.8069 19.4885 28.4994 18.9331 28.1336 18.2757L28.0632 18.1468L27.6645 17.4335C26.8795 16.0262 26.3399 15.0612 25.8611 14.4366C25.3823 13.8119 25.1392 13.7585 25.0007 13.7585C24.8621 13.7585 24.6178 13.8119 24.1402 14.4366ZM22.6941 13.3283C23.2713 12.5724 23.9871 11.9355 25.0007 11.9355C26.0142 11.9355 26.7288 12.5724 27.3085 13.3283C27.8772 14.072 28.4812 15.1548 29.2189 16.4783L29.6552 17.2597C30.1316 18.1152 30.2543 18.2975 30.4074 18.4142C30.5533 18.5248 30.7441 18.588 31.6713 18.7982L32.522 18.9902C33.9512 19.3135 35.1288 19.5796 35.9856 19.9175C36.8751 20.2687 37.6541 20.7852 37.9543 21.7489C38.2508 22.7029 37.9178 23.5803 37.4026 24.3982C36.9019 25.1942 36.1022 26.13 35.1251 27.2724L34.5479 27.9468C33.9196 28.6809 33.7883 28.8607 33.7264 29.0588C33.6644 29.2618 33.6692 29.4963 33.7652 30.4746L33.8515 31.3715C33.9998 32.8979 34.1201 34.1423 34.0776 35.0902C34.035 36.0564 33.8163 36.9824 33.0203 37.5876C32.2085 38.2026 31.2642 38.1345 30.3527 37.872C29.4692 37.6192 28.3682 37.1125 27.0314 36.4963L26.2342 36.1293C25.3616 35.7283 25.1757 35.6638 25.0007 35.6638C24.8257 35.6638 24.6397 35.7283 23.7672 36.1293L22.9711 36.4963C21.6331 37.1125 20.5321 37.6192 19.6486 37.872C18.7371 38.1333 17.7928 38.2026 16.9823 37.5876C16.185 36.9824 15.9663 36.0564 15.9237 35.0914C15.8812 34.1435 16.0015 32.8979 16.1498 31.3727L16.2373 30.4746C16.3321 29.4951 16.3369 29.2618 16.2737 29.0588C16.213 28.8607 16.0817 28.6821 15.4534 27.9468L14.8762 27.2724C13.9003 26.13 13.1007 25.1942 12.6 24.3994C12.0835 23.5803 11.7505 22.7029 12.047 21.7489C12.3472 20.7852 13.1262 20.2687 14.0158 19.9175C14.8725 19.5796 16.0501 19.3135 17.4793 18.9902L17.5559 18.9732L18.3288 18.7982C19.2573 18.588 19.4468 18.5248 19.5939 18.413C19.747 18.2975 19.8698 18.1152 20.3474 17.2597L20.7824 16.4783C21.5201 15.1536 22.1241 14.072 22.6928 13.3283" fill="black"/>
</svg>
