<svg width="45" height="45" viewBox="0 0 45 45" fill="none" xmlns="http://www.w3.org/2000/svg">
<mask id="path-1-inside-1_46_18" fill="white">
<path fill-rule="evenodd" clip-rule="evenodd" d="M37.2002 23.1257C41.2401 22.4835 44.3286 18.9748 44.3286 14.7426C44.3286 10.0547 40.5391 6.25445 35.8645 6.25445C35.6175 6.25445 35.373 6.26506 35.1314 6.28585C34.1642 2.66564 30.87 0 26.955 0C25.3205 0 23.7942 0.464637 22.5003 1.26939C21.2063 0.464637 19.68 0 18.0455 0C14.1305 0 10.8363 2.66564 9.86912 6.28585C9.62748 6.26506 9.38295 6.25445 9.13593 6.25445C4.46136 6.25445 0.671875 10.0547 0.671875 14.7426C0.671875 19.2807 4.22299 22.987 8.6905 23.2193C8.6905 23.2231 8.69049 23.227 8.69049 23.2309C8.69049 28.659 15.0728 33.0593 22.9457 33.0593C30.8187 33.0593 37.201 28.659 37.201 23.2309C37.201 23.1958 37.2007 23.1607 37.2002 23.1257Z"/>
</mask>
<path fill-rule="evenodd" clip-rule="evenodd" d="M37.2002 23.1257C41.2401 22.4835 44.3286 18.9748 44.3286 14.7426C44.3286 10.0547 40.5391 6.25445 35.8645 6.25445C35.6175 6.25445 35.373 6.26506 35.1314 6.28585C34.1642 2.66564 30.87 0 26.955 0C25.3205 0 23.7942 0.464637 22.5003 1.26939C21.2063 0.464637 19.68 0 18.0455 0C14.1305 0 10.8363 2.66564 9.86912 6.28585C9.62748 6.26506 9.38295 6.25445 9.13593 6.25445C4.46136 6.25445 0.671875 10.0547 0.671875 14.7426C0.671875 19.2807 4.22299 22.987 8.6905 23.2193C8.6905 23.2231 8.69049 23.227 8.69049 23.2309C8.69049 28.659 15.0728 33.0593 22.9457 33.0593C30.8187 33.0593 37.201 28.659 37.201 23.2309C37.201 23.1958 37.2007 23.1607 37.2002 23.1257Z" fill="white"/>
<path d="M37.2002 23.1257L36.8862 21.1505L35.1742 21.4227L35.2004 23.156L37.2002 23.1257ZM35.1314 6.28585L33.1991 6.80205L33.632 8.42225L35.3028 8.27848L35.1314 6.28585ZM22.5003 1.26939L21.444 2.96771L22.5003 3.62466L23.5565 2.96771L22.5003 1.26939ZM9.86912 6.28585L9.69766 8.27849L11.3685 8.42226L11.8014 6.80205L9.86912 6.28585ZM8.6905 23.2193L10.6905 23.2227L10.6938 21.3207L8.79435 21.222L8.6905 23.2193ZM37.5142 25.1009C42.5142 24.3061 46.3286 19.9693 46.3286 14.7426H42.3286C42.3286 17.9802 39.9661 20.6609 36.8862 21.1505L37.5142 25.1009ZM46.3286 14.7426C46.3286 8.95554 41.649 4.25445 35.8645 4.25445V8.25445C39.4291 8.25445 42.3286 11.1539 42.3286 14.7426H46.3286ZM35.8645 4.25445C35.5602 4.25445 35.2585 4.26752 34.9599 4.29321L35.3028 8.27848C35.4875 8.26259 35.6748 8.25445 35.8645 8.25445V4.25445ZM37.0636 5.76964C35.8695 1.29982 31.8019 -2 26.955 -2V2C29.9382 2 32.459 4.03146 33.1991 6.80205L37.0636 5.76964ZM26.955 -2C24.9362 -2 23.0455 -1.42499 21.444 -0.42893L23.5565 2.96771C24.5429 2.35426 25.7048 2 26.955 2V-2ZM23.5565 -0.42893C21.955 -1.42499 20.0643 -2 18.0455 -2V2C19.2957 2 20.4576 2.35426 21.444 2.96771L23.5565 -0.42893ZM18.0455 -2C13.1986 -2 9.13102 1.29983 7.93689 5.76965L11.8014 6.80205C12.5415 4.03146 15.0623 2 18.0455 2V-2ZM10.0406 4.29321C9.742 4.26752 9.44026 4.25445 9.13593 4.25445V8.25445C9.32563 8.25445 9.51297 8.26259 9.69766 8.27849L10.0406 4.29321ZM9.13593 4.25445C3.35143 4.25445 -1.32812 8.95554 -1.32812 14.7426H2.67188C2.67188 11.1539 5.5713 8.25445 9.13593 8.25445V4.25445ZM-1.32812 14.7426C-1.32812 20.3455 3.05697 24.9291 8.58665 25.2166L8.79435 21.222C5.38901 21.0449 2.67188 18.2159 2.67188 14.7426H-1.32812ZM10.6905 23.2309C10.6905 23.229 10.6905 23.2269 10.6905 23.2227L6.69051 23.2158C6.6905 23.2194 6.69049 23.225 6.69049 23.2309H10.6905ZM22.9457 31.0593C19.3629 31.0593 16.2065 30.0547 14.001 28.534C11.787 27.0076 10.6905 25.0993 10.6905 23.2309H6.69049C6.69049 26.7905 8.78509 29.7964 11.7305 31.8272C14.6844 33.8638 18.6557 35.0593 22.9457 35.0593V31.0593ZM35.201 23.2309C35.201 25.0993 34.1045 27.0076 31.8905 28.534C29.6849 30.0547 26.5286 31.0593 22.9457 31.0593V35.0593C27.2358 35.0593 31.2071 33.8638 34.161 31.8272C37.1064 29.7964 39.201 26.7905 39.201 23.2309H35.201ZM35.2004 23.156C35.2008 23.1811 35.201 23.2061 35.201 23.2309H39.201C39.201 23.1855 39.2006 23.1403 39.2 23.0954L35.2004 23.156Z" fill="black" mask="url(#path-1-inside-1_46_18)"/>
<mask id="path-3-inside-2_46_18" fill="white">
<path fill-rule="evenodd" clip-rule="evenodd" d="M43.1475 16.8389C41.0345 19.8492 32.5925 22.099 22.5 22.099C12.4075 22.099 3.96553 19.8492 1.85244 16.8389C0.660709 17.808 0 19.6288 0 22.7726C0 35.0485 10.0736 45 22.5 45C34.9264 45 45 35.0485 45 22.7726C45 19.6287 44.3393 17.808 43.1475 16.8389Z"/>
</mask>
<path fill-rule="evenodd" clip-rule="evenodd" d="M43.1475 16.8389C41.0345 19.8492 32.5925 22.099 22.5 22.099C12.4075 22.099 3.96553 19.8492 1.85244 16.8389C0.660709 17.808 0 19.6288 0 22.7726C0 35.0485 10.0736 45 22.5 45C34.9264 45 45 35.0485 45 22.7726C45 19.6287 44.3393 17.808 43.1475 16.8389Z" fill="#F8D729"/>
<path d="M43.1475 16.8389L44.4093 15.2872L42.7439 13.9329L41.5106 15.6899L43.1475 16.8389ZM1.85244 16.8389L3.48939 15.6899L2.25607 13.9329L0.590615 15.2872L1.85244 16.8389ZM41.5106 15.6899C41.2501 16.061 40.6531 16.5829 39.542 17.1483C38.4619 17.698 37.0392 18.2165 35.3161 18.6613C31.8726 19.5503 27.4109 20.099 22.5 20.099V24.099C27.6815 24.099 32.4871 23.5228 36.316 22.5343C38.2291 22.0405 39.9439 21.432 41.3563 20.7132C42.7378 20.0102 43.9884 19.122 44.7845 17.988L41.5106 15.6899ZM22.5 20.099C17.589 20.099 13.1273 19.5503 9.68387 18.6613C7.96076 18.2165 6.53812 17.698 5.45792 17.1483C4.34686 16.5829 3.74989 16.061 3.48939 15.6899L0.215486 17.988C1.01153 19.1221 2.26221 20.0102 3.64372 20.7133C5.05609 21.432 6.77092 22.0405 8.68399 22.5343C12.5129 23.5228 17.3184 24.099 22.5 24.099V20.099ZM2 22.7726C2 19.7932 2.64697 18.7707 3.11426 18.3907L0.590615 15.2872C-1.32555 16.8454 -2 19.4643 -2 22.7726H2ZM22.5 43C11.1551 43 2 33.921 2 22.7726H-2C-2 36.176 8.99208 47 22.5 47V43ZM43 22.7726C43 33.921 33.8449 43 22.5 43V47C36.0079 47 47 36.176 47 22.7726H43ZM41.8857 18.3907C42.353 18.7706 43 19.7932 43 22.7726H47C47 19.4643 46.3255 16.8454 44.4093 15.2872L41.8857 18.3907Z" fill="black" mask="url(#path-3-inside-2_46_18)"/>
</svg>
