<svg width="80" height="80" viewBox="0 0 80 80" fill="none" xmlns="http://www.w3.org/2000/svg">
<mask id="path-1-inside-1_27_8" fill="white">
<path fill-rule="evenodd" clip-rule="evenodd" d="M66.1335 41.1132C73.3156 39.9714 78.8061 33.7337 78.8061 26.2099C78.8061 17.8759 72.0693 11.1198 63.7589 11.1198C63.3201 11.1198 62.8856 11.1386 62.4563 11.1755C60.7372 4.73927 54.8807 0 47.9204 0C45.0145 0 42.301 0.826056 40.0007 2.25679C37.7003 0.826056 34.9868 0 32.081 0C25.1206 0 19.2641 4.73931 17.545 11.1756C17.1154 11.1387 16.6807 11.1198 16.2416 11.1198C7.9312 11.1198 1.19434 17.8759 1.19434 26.2099C1.19434 34.2775 7.50737 40.8665 15.4496 41.2795C15.4496 41.2861 15.4495 41.2926 15.4495 41.2992C15.4495 50.9491 26.7958 58.7719 40.7922 58.7719C54.7886 58.7719 66.1349 50.9491 66.1349 41.2992C66.1349 41.2371 66.1344 41.1751 66.1335 41.1132Z"/>
</mask>
<path fill-rule="evenodd" clip-rule="evenodd" d="M66.1335 41.1132C73.3156 39.9714 78.8061 33.7337 78.8061 26.2099C78.8061 17.8759 72.0693 11.1198 63.7589 11.1198C63.3201 11.1198 62.8856 11.1386 62.4563 11.1755C60.7372 4.73927 54.8807 0 47.9204 0C45.0145 0 42.301 0.826056 40.0007 2.25679C37.7003 0.826056 34.9868 0 32.081 0C25.1206 0 19.2641 4.73931 17.545 11.1756C17.1154 11.1387 16.6807 11.1198 16.2416 11.1198C7.9312 11.1198 1.19434 17.8759 1.19434 26.2099C1.19434 34.2775 7.50737 40.8665 15.4496 41.2795C15.4496 41.2861 15.4495 41.2926 15.4495 41.2992C15.4495 50.9491 26.7958 58.7719 40.7922 58.7719C54.7886 58.7719 66.1349 50.9491 66.1349 41.2992C66.1349 41.2371 66.1344 41.1751 66.1335 41.1132Z" fill="white"/>
<path d="M66.1335 41.1132L65.8195 39.138L64.1074 39.4102L64.1337 41.1435L66.1335 41.1132ZM62.4563 11.1755L60.5241 11.6917L60.9568 13.3119L62.6277 13.1682L62.4563 11.1755ZM40.0007 2.25679L38.9444 3.9551L40.0007 4.61207L41.057 3.9551L40.0007 2.25679ZM17.545 11.1756L17.3735 13.1683L19.0445 13.312L19.4772 11.6917L17.545 11.1756ZM15.4496 41.2795L17.4496 41.2827L17.4526 39.381L15.5534 39.2822L15.4496 41.2795ZM66.4475 43.0884C74.5896 41.794 80.8061 34.7283 80.8061 26.2099H76.8061C76.8061 32.7391 72.0415 38.1488 65.8195 39.138L66.4475 43.0884ZM80.8061 26.2099C80.8061 16.7767 73.1792 9.11979 63.7589 9.11979V13.1198C70.9593 13.1198 76.8061 18.9751 76.8061 26.2099H80.8061ZM63.7589 9.11979C63.2628 9.11979 62.7712 9.14109 62.285 9.1829L62.6277 13.1682C63.0001 13.1362 63.3773 13.1198 63.7589 13.1198V9.11979ZM64.3886 10.6594C62.4425 3.37349 55.8125 -2 47.9204 -2V2C53.9488 2 59.0319 6.10504 60.5241 11.6917L64.3886 10.6594ZM47.9204 -2C44.6302 -2 41.5523 -1.06356 38.9444 0.558476L41.057 3.9551C43.0497 2.71568 45.3988 2 47.9204 2V-2ZM41.057 0.558476C38.449 -1.06356 35.3712 -2 32.081 -2V2C34.6025 2 36.9516 2.71568 38.9444 3.9551L41.057 0.558476ZM32.081 -2C24.1888 -2 17.5588 3.37354 15.6127 10.6595L19.4772 11.6917C20.9694 6.10507 26.0525 2 32.081 2V-2ZM17.7164 9.18298C17.2299 9.14112 16.738 9.11979 16.2416 9.11979V13.1198C16.6234 13.1198 17.0009 13.1362 17.3735 13.1683L17.7164 9.18298ZM16.2416 9.11979C6.82127 9.11979 -0.805664 16.7767 -0.805664 26.2099H3.19434C3.19434 18.9751 9.04114 13.1198 16.2416 13.1198V9.11979ZM-0.805664 26.2099C-0.805664 35.3424 6.34134 42.8085 15.3457 43.2768L15.5534 39.2822C8.6734 38.9244 3.19434 33.2127 3.19434 26.2099H-0.805664ZM17.4495 41.2992C17.4495 41.2941 17.4496 41.2887 17.4496 41.2827L13.4496 41.2763C13.4496 41.2834 13.4495 41.2911 13.4495 41.2992H17.4495ZM40.7922 56.7719C34.1476 56.7719 28.2195 54.9117 24.0075 52.0077C19.7871 49.0979 17.4495 45.2785 17.4495 41.2992H13.4495C13.4495 46.9697 16.7851 51.8868 21.737 55.3009C26.6973 58.7208 33.4404 60.7719 40.7922 60.7719V56.7719ZM64.1349 41.2992C64.1349 45.2785 61.7973 49.0979 57.5769 52.0077C53.365 54.9117 47.4368 56.7719 40.7922 56.7719V60.7719C48.144 60.7719 54.8872 58.7208 59.8474 55.3009C64.7993 51.8868 68.1349 46.9697 68.1349 41.2992H64.1349ZM64.1337 41.1435C64.1345 41.1952 64.1349 41.2471 64.1349 41.2992H68.1349C68.1349 41.2271 68.1344 41.155 68.1333 41.0829L64.1337 41.1435Z" fill="black" mask="url(#path-1-inside-1_27_8)"/>
<mask id="path-3-inside-2_27_8" fill="white">
<path fill-rule="evenodd" clip-rule="evenodd" d="M76.707 29.9355C72.951 35.2874 57.9427 39.2873 40 39.2873C22.0572 39.2873 7.049 35.2874 3.29291 29.9356C1.17448 31.6585 0 34.8953 0 40.4841C0 62.3078 17.9086 79.9995 40 79.9995C62.0914 79.9995 80 62.3078 80 40.4841C80 34.8952 78.8255 31.6584 76.707 29.9355Z"/>
</mask>
<path fill-rule="evenodd" clip-rule="evenodd" d="M76.707 29.9355C72.951 35.2874 57.9427 39.2873 40 39.2873C22.0572 39.2873 7.049 35.2874 3.29291 29.9356C1.17448 31.6585 0 34.8953 0 40.4841C0 62.3078 17.9086 79.9995 40 79.9995C62.0914 79.9995 80 62.3078 80 40.4841C80 34.8952 78.8255 31.6584 76.707 29.9355Z" fill="#F8D729"/>
<path d="M76.707 29.9355L77.969 28.3839L76.3033 27.0293L75.07 28.7866L76.707 29.9355ZM3.29291 29.9356L4.92996 28.7866L3.6966 27.0293L2.03098 28.384L3.29291 29.9356ZM75.07 28.7866C74.3988 29.743 73.0834 30.8134 71.003 31.8721C68.9536 32.9152 66.3108 33.8719 63.1736 34.6819C56.9019 36.3011 48.836 37.2873 40 37.2873V41.2873C49.1066 41.2873 57.5163 40.2736 64.1735 38.5549C67.5007 37.6959 70.4357 36.6491 72.8173 35.437C75.1681 34.2406 77.1373 32.804 78.3441 31.0845L75.07 28.7866ZM40 37.2873C31.1639 37.2873 23.0981 36.3011 16.8264 34.6819C13.6892 33.8719 11.0464 32.9152 8.99694 31.8721C6.91659 30.8134 5.6012 29.7431 4.92996 28.7866L1.65586 31.0845C2.86266 32.804 4.83184 34.2406 7.18264 35.437C9.56432 36.6491 12.4993 37.6959 15.8265 38.5549C22.4836 40.2736 30.8933 41.2873 40 41.2873V37.2873ZM2 40.4841C2 35.0597 3.16074 32.621 4.55483 31.4872L2.03098 28.384C-0.811785 30.6959 -2 34.7308 -2 40.4841H2ZM40 77.9995C18.9901 77.9995 2 61.1803 2 40.4841H-2C-2 63.4353 16.8271 81.9995 40 81.9995V77.9995ZM78 40.4841C78 61.1803 61.0099 77.9995 40 77.9995V81.9995C63.1729 81.9995 82 63.4353 82 40.4841H78ZM75.4451 31.4872C76.8392 32.621 78 35.0597 78 40.4841H82C82 34.7308 80.8118 30.6959 77.969 28.3839L75.4451 31.4872Z" fill="black" mask="url(#path-3-inside-2_27_8)"/>
</svg>
