<svg width="125" height="142" viewBox="0 0 125 142" fill="none" xmlns="http://www.w3.org/2000/svg">
<path d="M1.55 94.95C2.81667 95.2167 3.45 95.7833 3.45 96.65C3.11667 97.5833 2.58333 98.05 1.85 98.05C0.616667 97.8167 0 97.2 0 96.2C0.333333 95.3667 0.85 94.95 1.55 94.95ZM3.45 101.95C3.98333 101.95 4.43333 102.433 4.8 103.4L4.35 106.95V109.3C4.35 112.033 4.81667 115.617 5.75 120.05C5.41667 120.683 4.85 121 4.05 121C2.68333 121 1.78333 117 1.35 109V107.25C1.35 103.717 2.05 101.95 3.45 101.95ZM14.223 90.65C15.1564 90.85 15.623 91.3167 15.623 92.05L15.323 94.25V94.9C15.323 96.3667 15.4897 97.9167 15.823 99.55H15.923C19.7897 98.3833 22.1897 97.8 23.123 97.8C24.0897 98.0667 24.573 98.55 24.573 99.25C24.573 100.383 23.423 100.95 21.123 100.95L15.923 102.8C15.923 107.3 16.4064 113.417 17.373 121.15C17.173 122.05 16.6897 122.5 15.923 122.5H15.823C14.6564 122.5 14.073 121 14.073 118C13.6397 115.767 13.273 110.917 12.973 103.45H12.073C8.93971 103.25 7.37305 102.517 7.37305 101.25C7.37305 100.883 7.72305 100.433 8.42305 99.9H8.92305L11.223 100.5H12.823L12.373 94.25C12.373 91.85 12.9897 90.65 14.223 90.65ZM31.9965 90.65C32.9298 90.85 33.3965 91.3167 33.3965 92.05L33.0965 94.25V94.9C33.0965 96.3667 33.2632 97.9167 33.5965 99.55H33.6965C37.5632 98.3833 39.9632 97.8 40.8965 97.8C41.8632 98.0667 42.3465 98.55 42.3465 99.25C42.3465 100.383 41.1965 100.95 38.8965 100.95L33.6965 102.8C33.6965 107.3 34.1798 113.417 35.1465 121.15C34.9465 122.05 34.4632 122.5 33.6965 122.5H33.5965C32.4298 122.5 31.8465 121 31.8465 118C31.4132 115.767 31.0465 110.917 30.7465 103.45H29.8465C26.7132 103.25 25.1465 102.517 25.1465 101.25C25.1465 100.883 25.4965 100.433 26.1965 99.9H26.6965L28.9965 100.5H30.5965L30.1465 94.25C30.1465 91.85 30.7632 90.65 31.9965 90.65ZM53.2199 101.7C54.6866 101.7 55.4199 102.283 55.4199 103.45L54.9699 104.4L54.6699 113.55C54.6699 117.683 55.5033 120.25 57.1699 121.25L57.2699 122C57.1699 122.967 56.7199 123.45 55.9199 123.45H55.6199C53.1199 121.75 51.8699 119.15 51.8699 115.65H51.5199C50.1866 119.383 48.5699 121.25 46.6699 121.25C44.9033 120.75 44.0199 119.433 44.0199 117.3C44.0199 112.6 45.9033 107.917 49.6699 103.25C50.9366 102.217 52.1199 101.7 53.2199 101.7ZM47.1699 115.3L46.9699 116.7V117.65H47.4699C49.9699 111.417 51.2199 107.617 51.2199 106.25H51.0199C49.0866 108.417 47.8033 111.433 47.1699 115.3ZM64.3195 107.25L73.3695 106.65C74.2029 106.65 74.6862 107.167 74.8195 108.2C74.8195 109.233 73.2529 109.75 70.1195 109.75C67.8195 110.083 65.7862 110.25 64.0195 110.25C61.8529 109.983 60.7695 109.367 60.7695 108.4C60.7695 107.733 61.2195 107.2 62.1195 106.8L64.0195 107.25H64.3195ZM79.8168 97.25C81.5501 97.25 82.6668 100.65 83.1668 107.45L83.4668 109C85.0001 105.867 86.2501 104.3 87.2168 104.3C87.2168 104.167 87.5668 104.067 88.2668 104H88.4668C90.6668 104 92.0668 105.717 92.6668 109.15V109.3C92.6668 112.233 91.2001 115.467 88.2668 119C87.0335 120.333 85.6835 121 84.2168 121C82.5501 120.633 81.7168 119.8 81.7168 118.5L79.2168 100.55L78.4668 98.7C78.4668 98.1 78.9168 97.6167 79.8168 97.25ZM85.0168 117.55H85.1668C86.9001 116.85 88.4168 114.467 89.7168 110.4V108.5C89.4168 107.467 89.0335 106.95 88.5668 106.95H88.1668C86.7001 107.817 85.6501 111.35 85.0168 117.55ZM104.538 101.7C106.005 101.7 106.738 102.283 106.738 103.45L106.288 104.4L105.988 113.55C105.988 117.683 106.822 120.25 108.488 121.25L108.588 122C108.488 122.967 108.038 123.45 107.238 123.45H106.938C104.438 121.75 103.188 119.15 103.188 115.65H102.838C101.505 119.383 99.8883 121.25 97.9883 121.25C96.2216 120.75 95.3383 119.433 95.3383 117.3C95.3383 112.6 97.2216 107.917 100.988 103.25C102.255 102.217 103.438 101.7 104.538 101.7ZM98.4883 115.3L98.2883 116.7V117.65H98.7883C101.288 111.417 102.538 107.617 102.538 106.25H102.338C100.405 108.417 99.1216 111.433 98.4883 115.3ZM110.188 97.25C111.921 97.25 113.038 100.65 113.538 107.45L113.838 109C115.371 105.867 116.621 104.3 117.588 104.3C117.588 104.167 117.938 104.067 118.638 104H118.838C121.038 104 122.438 105.717 123.038 109.15V109.3C123.038 112.233 121.571 115.467 118.638 119C117.405 120.333 116.055 121 114.588 121C112.921 120.633 112.088 119.8 112.088 118.5L109.588 100.55L108.838 98.7C108.838 98.1 109.288 97.6167 110.188 97.25ZM115.388 117.55H115.538C117.271 116.85 118.788 114.467 120.088 110.4V108.5C119.788 107.467 119.405 106.95 118.938 106.95H118.538C117.071 107.817 116.021 111.35 115.388 117.55Z" fill="#212020"/>
<mask id="path-2-inside-1_480_53" fill="white">
<path fill-rule="evenodd" clip-rule="evenodd" d="M83.3866 34.3338C89.4016 33.3803 94 28.171 94 21.8877C94 14.9278 88.3579 9.28571 81.3979 9.28571C81.0302 9.28571 80.6661 9.30146 80.3064 9.33232C78.8664 3.95757 73.9617 0 68.1327 0C65.6991 0 63.4265 0.689833 61.5 1.88463C59.5735 0.689833 57.301 0 54.8674 0C49.0383 0 44.1336 3.95757 42.6936 9.33233C42.3339 9.30146 41.9698 9.28571 41.602 9.28571C34.6421 9.28571 29 14.9278 29 21.8877C29 28.6252 34.2872 34.1277 40.9388 34.4726C40.9388 34.4784 40.9388 34.4841 40.9388 34.4898C40.9388 42.5486 50.4413 49.0816 62.1633 49.0816C73.8852 49.0816 83.3878 42.5486 83.3878 34.4898C83.3878 34.4377 83.3874 34.3857 83.3866 34.3338Z"/>
</mask>
<path fill-rule="evenodd" clip-rule="evenodd" d="M83.3866 34.3338C89.4016 33.3803 94 28.171 94 21.8877C94 14.9278 88.3579 9.28571 81.3979 9.28571C81.0302 9.28571 80.6661 9.30146 80.3064 9.33232C78.8664 3.95757 73.9617 0 68.1327 0C65.6991 0 63.4265 0.689833 61.5 1.88463C59.5735 0.689833 57.301 0 54.8674 0C49.0383 0 44.1336 3.95757 42.6936 9.33233C42.3339 9.30146 41.9698 9.28571 41.602 9.28571C34.6421 9.28571 29 14.9278 29 21.8877C29 28.6252 34.2872 34.1277 40.9388 34.4726C40.9388 34.4784 40.9388 34.4841 40.9388 34.4898C40.9388 42.5486 50.4413 49.0816 62.1633 49.0816C73.8852 49.0816 83.3878 42.5486 83.3878 34.4898C83.3878 34.4377 83.3874 34.3857 83.3866 34.3338Z" fill="white"/>
<path d="M83.3866 34.3338L83.0734 32.3584L81.3604 32.63L81.3868 34.3642L83.3866 34.3338ZM80.3064 9.33232L78.3745 9.8499L78.8081 11.4682L80.4774 11.325L80.3064 9.33232ZM61.5 1.88463L60.4459 3.58429L61.5 4.23803L62.5541 3.58429L61.5 1.88463ZM42.6936 9.33233L42.5227 11.325L44.1919 11.4682L44.6255 9.84991L42.6936 9.33233ZM40.9388 34.4726L42.9388 34.476L42.942 32.5738L41.0424 32.4753L40.9388 34.4726ZM83.6997 36.3091C90.671 35.204 96 29.1701 96 21.8877H92C92 27.1719 88.1322 31.5565 83.0734 32.3584L83.6997 36.3091ZM96 21.8877C96 13.8233 89.4624 7.28571 81.3979 7.28571V11.2857C87.2533 11.2857 92 16.0324 92 21.8877H96ZM81.3979 7.28571C80.9731 7.28571 80.552 7.30391 80.1354 7.33964L80.4774 11.325C80.7803 11.299 81.0873 11.2857 81.3979 11.2857V7.28571ZM82.2383 8.81474C80.5699 2.58768 74.8896 -2 68.1327 -2V2C73.0338 2 77.1629 5.32745 78.3745 9.8499L82.2383 8.81474ZM68.1327 -2C65.3159 -2 62.6798 -1.20047 60.4459 0.18496L62.5541 3.58429C64.1733 2.58013 66.0822 2 68.1327 2V-2ZM62.5541 0.18496C60.3202 -1.20047 57.6841 -2 54.8674 -2V2C56.9179 2 58.8268 2.58014 60.4459 3.58429L62.5541 0.18496ZM54.8674 -2C48.1104 -2 42.4301 2.58768 40.7618 8.81475L44.6255 9.84991C45.8371 5.32745 49.9662 2 54.8674 2V-2ZM42.8646 7.33965C42.4481 7.30391 42.0269 7.28571 41.602 7.28571V11.2857C41.9127 11.2857 42.2197 11.299 42.5227 11.325L42.8646 7.33965ZM41.602 7.28571C33.5376 7.28571 27 13.8233 27 21.8877H31C31 16.0324 35.7467 11.2857 41.602 11.2857V7.28571ZM27 21.8877C27 29.6951 33.1263 36.0702 40.8352 36.47L41.0424 32.4753C35.4481 32.1852 31 27.5553 31 21.8877H27ZM42.9388 34.4898C42.9388 34.4856 42.9388 34.4811 42.9388 34.476L38.9388 34.4693C38.9388 34.4756 38.9388 34.4826 38.9388 34.4898H42.9388ZM62.1633 47.0816C56.6547 47.0816 51.7553 45.5432 48.2883 43.1597C44.8126 40.7701 42.9388 37.671 42.9388 34.4898H38.9388C38.9388 39.3674 41.8163 43.5642 46.0222 46.4559C50.2371 49.3536 55.9499 51.0816 62.1633 51.0816V47.0816ZM81.3878 34.4898C81.3878 37.671 79.514 40.7701 76.0382 43.1597C72.5713 45.5432 67.6718 47.0816 62.1633 47.0816V51.0816C68.3767 51.0816 74.0895 49.3536 78.3043 46.4559C82.5103 43.5642 85.3878 39.3674 85.3878 34.4898H81.3878ZM81.3868 34.3642C81.3874 34.4061 81.3878 34.448 81.3878 34.4898H85.3878C85.3878 34.4275 85.3873 34.3653 85.3863 34.3034L81.3868 34.3642Z" fill="black" mask="url(#path-2-inside-1_480_53)"/>
<mask id="path-4-inside-2_480_53" fill="white">
<path fill-rule="evenodd" clip-rule="evenodd" d="M92.2419 25C89.0958 29.4692 76.5266 32.8095 61.5 32.8095C46.4734 32.8095 33.9042 29.4692 30.7581 25C28.9837 26.4388 28 29.1419 28 33.8095C28 52.0349 42.9985 66.8095 61.5 66.8095C80.0015 66.8095 95 52.0349 95 33.8095C95 29.1419 94.0163 26.4388 92.2419 25Z"/>
</mask>
<path fill-rule="evenodd" clip-rule="evenodd" d="M92.2419 25C89.0958 29.4692 76.5266 32.8095 61.5 32.8095C46.4734 32.8095 33.9042 29.4692 30.7581 25C28.9837 26.4388 28 29.1419 28 33.8095C28 52.0349 42.9985 66.8095 61.5 66.8095C80.0015 66.8095 95 52.0349 95 33.8095C95 29.1419 94.0163 26.4388 92.2419 25Z" fill="#F8D729"/>
<path d="M92.2419 25L93.5016 23.4465L91.8388 22.0982L90.6065 23.8487L92.2419 25ZM30.7581 25L32.3935 23.8487L31.1612 22.0982L29.4984 23.4465L30.7581 25ZM90.6065 23.8487C90.0883 24.5848 89.0401 25.4489 87.3193 26.3222C85.6296 27.1796 83.4398 27.9714 80.8275 28.6438C75.6059 29.9881 68.8784 30.8095 61.5 30.8095V34.8095C69.1482 34.8095 76.2186 33.9607 81.8248 32.5175C84.6264 31.7963 87.108 30.915 89.1294 29.8892C91.1198 28.8791 92.8224 27.6498 93.8773 26.1513L90.6065 23.8487ZM61.5 30.8095C54.1216 30.8095 47.3941 29.9881 42.1724 28.6438C39.5602 27.9714 37.3704 27.1796 35.6807 26.3222C33.9599 25.4489 32.9117 24.5848 32.3935 23.8487L29.1227 26.1513C30.1776 27.6498 31.8802 28.8791 33.8706 29.8892C35.892 30.915 38.3736 31.7963 41.1752 32.5175C46.7814 33.9607 53.8518 34.8095 61.5 34.8095V30.8095ZM30 33.8095C30 29.3078 30.9693 27.4036 32.0177 26.5535L29.4984 23.4465C26.9981 25.4739 26 28.976 26 33.8095H30ZM61.5 64.8095C44.0746 64.8095 30 50.9021 30 33.8095H26C26 53.1677 41.9224 68.8095 61.5 68.8095V64.8095ZM93 33.8095C93 50.9021 78.9254 64.8095 61.5 64.8095V68.8095C81.0777 68.8095 97 53.1677 97 33.8095H93ZM90.9823 26.5535C92.0307 27.4036 93 29.3078 93 33.8095H97C97 28.976 96.0019 25.4739 93.5016 23.4465L90.9823 26.5535Z" fill="black" mask="url(#path-4-inside-2_480_53)"/>
</svg>
