<svg width="67" height="67" viewBox="0 0 67 67" fill="none" xmlns="http://www.w3.org/2000/svg">
<g id="Group 80">
<g id="Union">
<mask id="path-1-inside-1_39_18" fill="white">
<path fill-rule="evenodd" clip-rule="evenodd" d="M55.3866 34.3338C61.4016 33.3803 66 28.171 66 21.8877C66 14.9278 60.3579 9.28571 53.3979 9.28571C53.0302 9.28571 52.6661 9.30146 52.3064 9.33232C50.8664 3.95757 45.9617 0 40.1327 0C37.6991 0 35.4265 0.689833 33.5 1.88463C31.5735 0.689833 29.301 0 26.8674 0C21.0383 0 16.1336 3.95757 14.6936 9.33233C14.3339 9.30146 13.9698 9.28571 13.602 9.28571C6.64213 9.28571 1 14.9278 1 21.8877C1 28.6252 6.28719 34.1277 12.9388 34.4726C12.9388 34.4784 12.9388 34.4841 12.9388 34.4898C12.9388 42.5486 22.4413 49.0816 34.1633 49.0816C45.8852 49.0816 55.3878 42.5486 55.3878 34.4898C55.3878 34.4377 55.3874 34.3857 55.3866 34.3338Z"/>
</mask>
<path fill-rule="evenodd" clip-rule="evenodd" d="M55.3866 34.3338C61.4016 33.3803 66 28.171 66 21.8877C66 14.9278 60.3579 9.28571 53.3979 9.28571C53.0302 9.28571 52.6661 9.30146 52.3064 9.33232C50.8664 3.95757 45.9617 0 40.1327 0C37.6991 0 35.4265 0.689833 33.5 1.88463C31.5735 0.689833 29.301 0 26.8674 0C21.0383 0 16.1336 3.95757 14.6936 9.33233C14.3339 9.30146 13.9698 9.28571 13.602 9.28571C6.64213 9.28571 1 14.9278 1 21.8877C1 28.6252 6.28719 34.1277 12.9388 34.4726C12.9388 34.4784 12.9388 34.4841 12.9388 34.4898C12.9388 42.5486 22.4413 49.0816 34.1633 49.0816C45.8852 49.0816 55.3878 42.5486 55.3878 34.4898C55.3878 34.4377 55.3874 34.3857 55.3866 34.3338Z" fill="white"/>
<path d="M55.3866 34.3338L55.0734 32.3584L53.3604 32.63L53.3868 34.3642L55.3866 34.3338ZM52.3064 9.33232L50.3745 9.8499L50.8081 11.4682L52.4774 11.325L52.3064 9.33232ZM33.5 1.88463L32.4459 3.58429L33.5 4.23803L34.5541 3.58429L33.5 1.88463ZM14.6936 9.33233L14.5227 11.325L16.1919 11.4682L16.6255 9.84991L14.6936 9.33233ZM12.9388 34.4726L14.9388 34.476L14.942 32.5738L13.0424 32.4753L12.9388 34.4726ZM55.6997 36.3091C62.671 35.204 68 29.1701 68 21.8877H64C64 27.1719 60.1322 31.5565 55.0734 32.3584L55.6997 36.3091ZM68 21.8877C68 13.8233 61.4624 7.28571 53.3979 7.28571V11.2857C59.2533 11.2857 64 16.0324 64 21.8877H68ZM53.3979 7.28571C52.9731 7.28571 52.552 7.30391 52.1354 7.33964L52.4774 11.325C52.7803 11.299 53.0873 11.2857 53.3979 11.2857V7.28571ZM54.2383 8.81474C52.5699 2.58768 46.8896 -2 40.1327 -2V2C45.0338 2 49.1629 5.32745 50.3745 9.8499L54.2383 8.81474ZM40.1327 -2C37.3159 -2 34.6798 -1.20047 32.4459 0.18496L34.5541 3.58429C36.1733 2.58013 38.0822 2 40.1327 2V-2ZM34.5541 0.18496C32.3202 -1.20047 29.6841 -2 26.8674 -2V2C28.9179 2 30.8268 2.58014 32.4459 3.58429L34.5541 0.18496ZM26.8674 -2C20.1104 -2 14.4301 2.58768 12.7618 8.81475L16.6255 9.84991C17.8371 5.32745 21.9662 2 26.8674 2V-2ZM14.8646 7.33965C14.4481 7.30391 14.0269 7.28571 13.602 7.28571V11.2857C13.9127 11.2857 14.2197 11.299 14.5227 11.325L14.8646 7.33965ZM13.602 7.28571C5.53756 7.28571 -1 13.8233 -1 21.8877H3C3 16.0324 7.7467 11.2857 13.602 11.2857V7.28571ZM-1 21.8877C-1 29.6951 5.12629 36.0702 12.8352 36.47L13.0424 32.4753C7.44809 32.1852 3 27.5553 3 21.8877H-1ZM14.9388 34.4898C14.9388 34.4856 14.9388 34.4811 14.9388 34.476L10.9388 34.4693C10.9388 34.4756 10.9388 34.4826 10.9388 34.4898H14.9388ZM34.1633 47.0816C28.6547 47.0816 23.7553 45.5432 20.2883 43.1597C16.8126 40.7701 14.9388 37.671 14.9388 34.4898H10.9388C10.9388 39.3674 13.8163 43.5642 18.0222 46.4559C22.2371 49.3536 27.9499 51.0816 34.1633 51.0816V47.0816ZM53.3878 34.4898C53.3878 37.671 51.514 40.7701 48.0382 43.1597C44.5713 45.5432 39.6718 47.0816 34.1633 47.0816V51.0816C40.3767 51.0816 46.0895 49.3536 50.3043 46.4559C54.5103 43.5642 57.3878 39.3674 57.3878 34.4898H53.3878ZM53.3868 34.3642C53.3874 34.4061 53.3878 34.448 53.3878 34.4898H57.3878C57.3878 34.4275 57.3873 34.3653 57.3863 34.3034L53.3868 34.3642Z" fill="black" mask="url(#path-1-inside-1_39_18)"/>
</g>
<g id="Subtract">
<mask id="path-3-inside-2_39_18" fill="white">
<path fill-rule="evenodd" clip-rule="evenodd" d="M64.2419 25C61.0958 29.4692 48.5266 32.8095 33.5 32.8095C18.4734 32.8095 5.90419 29.4692 2.75808 25C0.983723 26.4388 0 29.1419 0 33.8095C0 52.0349 14.9985 66.8095 33.5 66.8095C52.0015 66.8095 67 52.0349 67 33.8095C67 29.1419 66.0163 26.4388 64.2419 25Z"/>
</mask>
<path fill-rule="evenodd" clip-rule="evenodd" d="M64.2419 25C61.0958 29.4692 48.5266 32.8095 33.5 32.8095C18.4734 32.8095 5.90419 29.4692 2.75808 25C0.983723 26.4388 0 29.1419 0 33.8095C0 52.0349 14.9985 66.8095 33.5 66.8095C52.0015 66.8095 67 52.0349 67 33.8095C67 29.1419 66.0163 26.4388 64.2419 25Z" fill="#F8D729"/>
<path d="M64.2419 25L65.5016 23.4465L63.8388 22.0982L62.6065 23.8487L64.2419 25ZM2.75808 25L4.3935 23.8487L3.16122 22.0982L1.49842 23.4465L2.75808 25ZM62.6065 23.8487C62.0883 24.5848 61.0401 25.4489 59.3193 26.3222C57.6296 27.1796 55.4398 27.9714 52.8275 28.6438C47.6059 29.9881 40.8784 30.8095 33.5 30.8095V34.8095C41.1482 34.8095 48.2186 33.9607 53.8248 32.5175C56.6264 31.7963 59.108 30.915 61.1294 29.8892C63.1198 28.8791 64.8224 27.6498 65.8773 26.1513L62.6065 23.8487ZM33.5 30.8095C26.1216 30.8095 19.3941 29.9881 14.1724 28.6438C11.5602 27.9714 9.3704 27.1796 7.68071 26.3222C5.95992 25.4489 4.91166 24.5848 4.3935 23.8487L1.12266 26.1513C2.17755 27.6498 3.88023 28.8791 5.87059 29.8892C7.89204 30.915 10.3736 31.7963 13.1752 32.5175C18.7814 33.9607 25.8518 34.8095 33.5 34.8095V30.8095ZM2 33.8095C2 29.3078 2.96933 27.4036 4.01774 26.5535L1.49842 23.4465C-1.00188 25.4739 -2 28.976 -2 33.8095H2ZM33.5 64.8095C16.0746 64.8095 2 50.9021 2 33.8095H-2C-2 53.1677 13.9224 68.8095 33.5 68.8095V64.8095ZM65 33.8095C65 50.9021 50.9254 64.8095 33.5 64.8095V68.8095C53.0777 68.8095 69 53.1677 69 33.8095H65ZM62.9823 26.5535C64.0307 27.4036 65 29.3078 65 33.8095H69C69 28.976 68.0019 25.4739 65.5016 23.4465L62.9823 26.5535Z" fill="black" mask="url(#path-3-inside-2_39_18)"/>
</g>
</g>
</svg>
